<svg id="Capa_1" enable-background="new 0 0 511.997 511.997" height="512" viewBox="0 0 511.997 511.997" width="512" xmlns="http://www.w3.org/2000/svg"><g><path d="m352.949 172.461c-4.149.287-8.201-1.231-11.129-4.159-2.929-2.928-4.444-6.984-4.159-11.128.284-4.132-2.836-7.713-6.968-7.997-4.144-.279-7.713 2.836-7.997 6.968-.582 8.471 2.522 16.768 8.518 22.764 5.994 5.994 14.294 9.1 22.763 8.517 4.133-.284 7.253-3.864 6.969-7.996-.284-4.133-3.866-7.244-7.997-6.969zm138.993-41.003c25.71-18.934 27.013-58.084 2.097-83-21.91-21.908-56.795-24.571-78.076-3.612-41.443-45.583-112.694-44.787-146.358-17.143-9.314 7.648-10.281 20.956-3.51 29.866-40.823 22.445-63.634 73.702-44.584 129.137-.174.057-.346.118-.52.177-20.979-5.413-55.592-21.104-87.506-48.682-14.266-12.326-35.902-10.749-48.229 3.516-12.328 14.266-10.75 35.901 3.516 48.229 21.554 18.626 46.959 35.145 72.482 47.262-1.452 1.452-3.748 3.747-3.933 3.934h-79.061c-4.142 0-7.5 3.358-7.5 7.5s3.358 7.5 7.5 7.5h199.481c21.094 0 38.254 17.16 38.254 38.254v32.186c0 21.093-17.16 38.253-38.254 38.253-10.869 0-236.753 0-247.619 0-8.338 0-15.122-6.784-15.122-15.122 0-3.387 2.755-6.142 6.142-6.142h252.407c12.725 0 23.076-10.352 23.076-23.077v-20.011c0-12.725-10.352-23.077-23.076-23.077h-252.407c-3.387 0-6.142-2.755-6.142-6.142 0-8.338 6.784-15.122 15.122-15.122h12.961c4.142 0 7.5-3.358 7.5-7.5s-3.358-7.5-7.5-7.5h-12.961c-16.609-.001-30.122 13.512-30.122 30.121 0 11.658 9.484 21.142 21.142 21.142h2.62v36.165h-2.62c-11.658 0-21.142 9.485-21.142 21.143 0 12.579 7.753 23.376 18.729 27.878-11.449 9.775-18.729 24.297-18.729 40.497v32.187c0 29.364 23.889 53.253 53.253 53.253h201.328c4.143 0 7.5-3.358 7.5-7.5s-3.358-7.5-7.5-7.5h-201.328c-21.093 0-38.253-17.16-38.253-38.253v-32.187c0-21.093 17.161-38.253 38.253-38.253h247.62c8.338 0 15.122 6.784 15.122 15.122 0 3.387-2.756 6.143-6.143 6.143h-252.406c-12.725 0-23.077 10.352-23.077 23.077v20.011c0 12.725 10.352 23.077 23.077 23.077h252.406c3.387 0 6.143 2.755 6.143 6.142 0 8.338-6.784 15.122-15.122 15.122h-11.02c-4.143 0-7.5 3.358-7.5 7.5s3.357 7.5 7.5 7.5h11.02c16.609 0 30.122-13.513 30.122-30.122 0-11.658-9.484-21.142-21.143-21.142h-2.62v-36.164h2.62c11.658 0 21.143-9.484 21.143-21.143 0-12.579-7.753-23.376-18.729-27.878 6.711-5.729 11.983-13.089 15.2-21.465 31.417 13.258 63.113 20.394 77.767 22.598 18.604 2.797 36.09-10.046 38.898-28.728 2.811-18.689-10.037-36.089-28.728-38.899-9.473-1.425-20.234-3.937-31.127-7.174 29.43-5.889 54.568-24.472 68.247-49.384 8.968 6.91 22.351 5.871 29.983-3.423 20.25-24.663 26.298-70.29 9.436-109.147zm-453.18 160.947h234.787c4.453 0 8.076 3.624 8.076 8.077v20.011c0 4.454-3.623 8.077-8.076 8.077h-234.787zm253.47 159.859h-234.786c-4.454 0-8.077-3.623-8.077-8.077v-20.011c0-4.454 3.623-8.077 8.077-8.077h234.786zm105.792-139.753c5.264 1.196 10.365 2.188 15.148 2.907 10.489 1.578 17.704 11.342 16.124 21.836-1.572 10.464-11.376 17.698-21.835 16.125-5.027-.756-12.174-2.128-20.657-4.161-.051-12.147 4.587-29.129 11.22-36.707zm-286.599-123.445c-4.409-3.398-8.704-6.892-12.845-10.47-8.008-6.92-8.893-19.064-1.974-27.072 6.919-8.009 19.064-8.893 27.073-1.974 3.736 3.229 7.502 6.298 11.275 9.221-5.9 10.702-15.511 22.633-23.529 30.295zm12.265 8.979c8.162-8.151 17.164-19.409 23.449-30.358 19.792 13.653 39.211 23.204 55.346 29.086-5.763 4.421-6.846 6.275-29.948 29.152-16.598-7.488-33.252-17.022-48.847-27.88zm54.843 43.096 28.116-28.117c5.79-5.79 12.803-10.009 20.525-12.395 6.619 14.074 15.8 27.683 27.385 40.512zm193.409 104.169c-12.704-3.627-26.983-8.445-41.125-14.576.32-4.128.11-2.97.177-36.34 0-1.181-.052-2.35-.129-3.513 3.459.973 6.914 1.793 10.357 2.455 12.558 5.789 27.073 11.078 41.28 15.168-6.411 10.542-9.919 24.974-10.56 36.806zm-45.067-71.443c-8.053-19.202-27.042-32.725-49.134-32.725h-2.244c-71.465-67.872-50.606-149.065 3.834-173.426 29.095 17.464 81.317 34.699 113.841 41.805 3.747.819 6.697 3.769 7.516 7.516 7.155 32.744 24.386 84.758 41.733 113.721-17.086 38.223-63.5 61.811-115.546 43.109zm144.039-42.784c-2.797 3.405-8.038 3.157-10.581-.326-18.927-25.92-38.036-85.093-44.991-116.922-2.065-9.457-9.511-16.902-18.969-18.969-31.827-6.954-90.998-26.062-116.922-44.99-3.528-2.576-3.686-7.822-.326-10.581 31.411-25.795 110.522-24.777 141.471 39.023 2.38 4.905 6.392 8.916 11.296 11.295 27.224 13.206 45.804 36.848 52.32 66.57 6.076 27.715.731 57.815-13.298 74.9zm14.004-113.168c-10.893-17.857-26.711-32.208-46.48-41.798-5.14-2.493-3.672-5.669-13.094-19.404 14.131-15.383 40.482-15.252 58.087 2.352 18.083 18.082 17.593 45.083 1.487 58.85zm-96.011 81.008-8.485 8.485c-2.929 2.929-2.929 7.678 0 10.606 2.93 2.929 7.678 2.929 10.607 0l8.485-8.485c2.929-2.929 2.929-7.678 0-10.606-2.929-2.929-7.677-2.929-10.607 0zm-88.315-88.315-8.485 8.485c-2.929 2.929-2.929 7.678 0 10.606 2.93 2.929 7.678 2.929 10.608 0l8.485-8.485c2.929-2.929 2.929-7.678 0-10.606-2.93-2.929-7.678-2.929-10.608 0z"/></g></svg>