<svg xmlns="http://www.w3.org/2000/svg" width="27.9" height="24.947" viewBox="0 0 27.9 24.947">
  <g id="cart" transform="translate(-142.638 -406.945)">
    <path id="Path_3" data-name="Path 3" d="M165.111,428.626a1.912,1.912,0,1,1-2.7,0l0,0a1.912,1.912,0,0,1,2.7,0" fill="#d1d1d1"/>
    <path id="Path_4" data-name="Path 4" d="M155.55,428.626a1.912,1.912,0,1,1-2.7,0l0,0a1.912,1.912,0,0,1,2.7,0" fill="#d1d1d1"/>
    <path id="Path_5" data-name="Path 5" d="M165.671,425.2H152.764l-3.346-10.516h19.121Z" fill="#d1d1d1"/>
    <path id="Path_7" data-name="Path 7" d="M164.21,427.2H153.717a3.936,3.936,0,0,1-3.753-2.806l-3.954-13.447h-1.372a2,2,0,0,1,0-4h1.8a3.457,3.457,0,0,1,3.29,2.467l.961,3.269h17.849a2,2,0,0,1,1.93,2.526l-2.483,9.108A3.922,3.922,0,0,1,164.21,427.2Zm-10.427-4h10.36l1.777-6.517H151.866Z" fill="#d1d1d1"/>
  </g>
</svg>
