<svg id="Capa_1" enable-background="new 0 0 512 512" height="512" viewBox="0 0 512 512" width="512" xmlns="http://www.w3.org/2000/svg"><g><path d="m106 0c-24.813 0-45 20.187-45 45v392c0 8.284 6.716 15 15 15h60l27-261-27-191z" fill="#575f64"/><path d="m436 0c8.28 0 15 6.72 15 15v407c0 8.28-6.72 15-15 15h-300v-437z" fill="#ff6c6c"/><path d="m436 0c8.28 0 15 6.72 15 15v407c0 8.28-6.72 15-15 15h-150v-437z" fill="#e63950"/><path d="m421 452-24.33 15 24.33 15h15c8.28 0 15 6.72 15 15s-6.72 15-15 15h-360c-8.28 0-15-6.72-15-15v-60c0-8.28 6.72-15 15-15h375v15c0 8.28-6.72 15-15 15z" fill="#e63950"/><path d="m421 452-24.33 15 24.33 15h15c8.28 0 15 6.72 15 15s-6.72 15-15 15h-150v-90h165v15c0 8.28-6.72 15-15 15z" fill="#ae2538"/><path d="m91 452h330v30h-330z" fill="#edf5ff"/><path d="m286 452h135v30h-135z" fill="#d5e8fe"/><g><path d="m346 92h-.33c-14.06-18.73-36.06-30-59.67-30s-45.61 11.27-59.67 30h-.33c-24.81 0-45 20.19-45 45 0 19.56 12.54 36.24 30 42.43v77.57c0 8.28 6.72 15 15 15h120c8.28 0 15-6.72 15-15v-77.57c17.46-6.19 30-22.87 30-42.43 0-24.81-20.19-45-45-45z" fill="#edf5ff"/></g><path d="m391 137c0 19.56-12.54 36.24-30 42.43v77.57c0 8.28-6.72 15-15 15h-60v-210c23.61 0 45.61 11.27 59.67 30h.33c24.81 0 45 20.19 45 45z" fill="#d5e8fe"/><g><path d="m361 317c0 8.28-6.72 15-15 15h-120c-8.28 0-15-6.72-15-15s6.72-15 15-15h120c8.28 0 15 6.72 15 15z" fill="#575f64"/></g><path d="m361 317c0 8.28-6.72 15-15 15h-60v-30h60c8.28 0 15 6.72 15 15z" fill="#474f54"/></g></svg>