<?xml version="1.0" encoding="utf-8"?>
<!-- Generator: Adobe Illustrator 24.1.1, SVG Export Plug-In . SVG Version: 6.00 Build 0)  -->
<svg version="1.1" id="Layer_1" xmlns="http://www.w3.org/2000/svg" xmlns:xlink="http://www.w3.org/1999/xlink" x="0px" y="0px"
	 viewBox="0 0 399.9 361.6" style="enable-background:new 0 0 399.9 361.6;" xml:space="preserve">
<style type="text/css">
	.st0{fill:#D84526;}
	.st1{enable-background:new    ;}
	.st2{fill:#1D1D1B;}
</style>
<path class="st0" d="M177.6,93.3L226.9,70c-15-27.2-49.2-37.2-76.4-22.2c-9.4,5.1-17.1,12.9-22.2,22.2L177.6,93.3z"/>
<polygon class="st0" points="192.5,105.2 192.5,251.6 290.1,210.6 290.1,64.2 "/>
<polygon class="st0" points="164.5,263 177.6,269.8 177.6,156.6 164.5,156.6 "/>
<polygon class="st0" points="121.3,87.9 121.3,122.4 112.8,126.9 104.3,116.2 104.3,80.7 65,64.2 65,210.6 177.6,257.8 177.6,111.5 
	"/>
<path class="st0" d="M177.6,28.2c1.1,0,2.2,0.1,3.3,0.1L177.6,0l-3.3,28.4C175.4,28.3,176.5,28.2,177.6,28.2z"/>
<path class="st0" d="M133.1,44.3l-21.5-17l16.8,21.2C129.9,47.1,131.4,45.7,133.1,44.3z"/>
<path class="st0" d="M222.1,44.3c1.6,1.3,3.2,2.8,4.7,4.2l16.8-21.2L222.1,44.3z"/>
<path class="st0" d="M51.4,328.4h69.5v-13H51.4v-9.6h71c7.9,0,14.3,7.2,14.3,16.1c0,8.9-6.4,16.1-14.3,16.1h-71V328.4z"/>
<path class="st0" d="M51.4,296.1h55.8v-13H51.4v-9.6h57c6.3,0,11.4,7.2,11.4,16.1s-5.1,16.1-11.4,16.1h-57V296.1z"/>
<rect x="39.8" y="273.5" class="st0" width="11.6" height="64.4"/>
<g class="st1">
	<path class="st2" d="M159.8,294c1.9,0,3.6,0.3,5.4,0.7c1.7,0.5,3.3,1.1,4.8,2c1.5,0.9,2.9,1.9,4.1,3.1s2.3,2.5,3.2,4
		c0.9,1.5,1.6,3,2.1,4.7c0.5,1.7,0.8,3.5,0.8,5.3c0,1.9-0.2,3.7-0.6,5.5c-0.5,1.8-1.1,3.4-2,5c-0.9,1.5-1.9,3-3.2,4.2
		c-1.3,1.3-2.6,2.4-4.2,3.3c-1.5,0.9-3.2,1.6-4.9,2.1s-3.6,0.8-5.5,0.8c-1.9,0-3.7-0.2-5.4-0.7c-1.7-0.5-3.4-1.2-4.9-2
		c-1.5-0.9-2.9-1.9-4.2-3.2c-1.3-1.2-2.3-2.6-3.2-4.1c-0.9-1.5-1.6-3.1-2.1-4.8c-0.5-1.7-0.8-3.5-0.8-5.4c0-1.9,0.2-3.7,0.7-5.4
		c0.5-1.7,1.2-3.4,2.1-4.9c0.9-1.5,2-2.9,3.3-4.2c1.3-1.3,2.7-2.3,4.2-3.2c1.5-0.9,3.2-1.6,4.9-2.1S157.9,294,159.8,294z
		 M159.7,301.7c-1.7,0-3.4,0.3-4.9,1c-1.5,0.6-2.9,1.5-4.1,2.6c-1.2,1.1-2.1,2.4-2.8,3.9c-0.7,1.5-1.1,3.1-1.1,4.8
		c0,1.2,0.1,2.4,0.4,3.5s0.7,2.2,1.3,3.1c0.6,1,1.3,1.9,2.1,2.6c0.8,0.8,1.7,1.5,2.7,2s2,1,3.1,1.3c1.1,0.3,2.3,0.4,3.5,0.4
		c1.2,0,2.3-0.2,3.4-0.5s2.1-0.8,3-1.3c0.9-0.6,1.8-1.3,2.6-2s1.4-1.7,2-2.6s0.9-2,1.2-3.1c0.3-1.1,0.4-2.2,0.4-3.4
		c0-1.7-0.4-3.3-1.1-4.8c-0.7-1.5-1.6-2.8-2.7-3.9s-2.5-2-4-2.6C163.1,302,161.5,301.7,159.7,301.7z"/>
	<path class="st2" d="M206.1,294c1.9,0,3.6,0.3,5.4,0.7s3.3,1.1,4.8,2c1.5,0.9,2.9,1.9,4.1,3.1c1.2,1.2,2.3,2.5,3.2,4
		c0.9,1.5,1.6,3,2.1,4.7c0.5,1.7,0.8,3.5,0.8,5.3c0,1.9-0.2,3.7-0.6,5.5s-1.1,3.4-2,5c-0.9,1.5-1.9,3-3.2,4.2s-2.6,2.4-4.2,3.3
		s-3.2,1.6-4.9,2.1s-3.6,0.8-5.5,0.8c-1.9,0-3.7-0.2-5.4-0.7c-1.7-0.5-3.4-1.2-4.9-2c-1.5-0.9-2.9-1.9-4.2-3.2
		c-1.3-1.2-2.3-2.6-3.2-4.1c-0.9-1.5-1.6-3.1-2.1-4.8c-0.5-1.7-0.8-3.5-0.8-5.4c0-1.9,0.2-3.7,0.7-5.4c0.5-1.7,1.2-3.4,2.1-4.9
		c0.9-1.5,2-2.9,3.3-4.2c1.3-1.3,2.7-2.3,4.2-3.2c1.5-0.9,3.2-1.6,4.9-2.1S204.2,294,206.1,294z M206,301.7c-1.7,0-3.4,0.3-4.9,1
		s-2.9,1.5-4.1,2.6c-1.2,1.1-2.1,2.4-2.8,3.9c-0.7,1.5-1.1,3.1-1.1,4.8c0,1.2,0.1,2.4,0.4,3.5s0.7,2.2,1.3,3.1
		c0.6,1,1.3,1.9,2.1,2.6c0.8,0.8,1.7,1.5,2.7,2s2,1,3.1,1.3c1.1,0.3,2.3,0.4,3.5,0.4c1.2,0,2.3-0.2,3.4-0.5s2.1-0.8,3-1.3
		c0.9-0.6,1.8-1.3,2.6-2s1.4-1.7,2-2.6s0.9-2,1.2-3.1c0.3-1.1,0.4-2.2,0.4-3.4c0-1.7-0.4-3.3-1.1-4.8c-0.7-1.5-1.6-2.8-2.7-3.9
		s-2.5-2-4-2.6S207.7,301.7,206,301.7z"/>
	<path class="st2" d="M239.5,317.5v16.2h-7.8v-39h7.8V310l10.7-15.3h9.8L246,313.5l14.1,20.2h-10L239.5,317.5z"/>
</g>
<g class="st1">
	<path class="st2" d="M289.7,307.1c-0.2-0.8-0.6-1.4-1.1-1.8s-1.2-0.7-2-0.7c-0.5,0-1,0-1.4,0.2c-0.5,0.2-0.9,0.4-1.2,0.7
		c-0.3,0.3-0.6,0.7-0.8,1.1c-0.2,0.4-0.3,0.9-0.3,1.4c0,0.4,0,0.7,0.2,1.1s0.3,0.7,0.6,1c0.2,0.3,0.5,0.6,0.9,0.9s0.7,0.4,1.1,0.6
		l3.8,1.3c1.2,0.4,2.3,0.9,3.3,1.6s1.8,1.5,2.5,2.4c0.7,0.9,1.2,1.9,1.5,2.9c0.4,1.1,0.5,2.1,0.5,3.3c0,1.5-0.3,2.9-0.9,4.2
		c-0.5,1.3-1.3,2.5-2.2,3.4c-0.9,1-2,1.8-3.3,2.4s-2.6,0.9-4.1,0.9c-1.4,0-2.7-0.2-3.7-0.5s-2-0.9-2.9-1.5c-0.8-0.6-1.5-1.3-2.1-2.1
		c-0.6-0.7-1-1.5-1.4-2.2c-0.3-0.7-0.6-1.3-0.7-1.8s-0.2-0.9-0.2-1.1l6.5-1.9c0,0.6,0,1.2,0.3,1.7s0.5,1,0.9,1.5
		c0.4,0.4,0.9,0.7,1.4,1s1.1,0.4,1.7,0.3c0.6,0,1.1-0.1,1.6-0.4c0.5-0.2,0.9-0.6,1.3-1c0.4-0.4,0.6-0.9,0.8-1.4
		c0.2-0.5,0.3-1.1,0.3-1.6c0-0.6-0.1-1.1-0.3-1.6c-0.2-0.5-0.5-0.9-0.9-1.2c-0.4-0.3-0.9-0.7-1.4-0.9c-0.5-0.3-1.1-0.5-1.8-0.8
		l-3.1-1.2c-1.2-0.5-2.2-1-3.1-1.8s-1.5-1.5-2.1-2.4s-0.9-1.7-1.2-2.6c-0.2-0.9-0.3-1.8-0.3-2.7c0.1-1.3,0.4-2.6,0.9-3.8
		c0.5-1.2,1.3-2.2,2.2-3.1c0.9-0.9,1.9-1.6,3.1-2.1c1.2-0.5,2.5-0.7,3.8-0.7c2.4,0.1,4.4,0.7,6,2c1.6,1.3,2.8,3.1,3.6,5.4
		L289.7,307.1z"/>
	<path class="st2" d="M310.8,305.6v5.5h4.1v5.9h-4.1v16h-6v-16h-3.1v-5.9h3.1v-5.5H310.8z"/>
	<path class="st2" d="M331.8,310.5c1.6,0,3.1,0.4,4.5,0.9c1.4,0.6,2.6,1.4,3.6,2.4s1.9,2.2,2.5,3.6c0.6,1.4,0.9,3,0.9,4.7
		c0,1.6-0.3,3.1-0.9,4.5c-0.6,1.4-1.5,2.6-2.5,3.7s-2.3,1.9-3.7,2.5c-1.4,0.6-2.9,1-4.6,1c-1.6,0.1-3.2-0.2-4.6-0.8
		c-1.5-0.6-2.7-1.4-3.8-2.5c-1.1-1.1-1.9-2.3-2.6-3.7c-0.6-1.4-0.9-3-0.9-4.6c0-1.1,0.2-2.2,0.5-3.2c0.3-1,0.7-2,1.3-2.8
		s1.2-1.7,1.9-2.4c0.8-0.7,1.6-1.3,2.5-1.8c0.9-0.5,1.9-0.9,2.9-1.1C329.7,310.6,330.7,310.5,331.8,310.5z M325.8,322.1
		c0,0.8,0.1,1.6,0.4,2.3c0.3,0.7,0.7,1.3,1.2,1.9c0.5,0.5,1.1,1,1.8,1.3s1.4,0.5,2.2,0.5c0.8,0,1.6-0.1,2.3-0.4s1.3-0.8,1.9-1.3
		c0.5-0.6,0.9-1.2,1.2-2c0.3-0.7,0.4-1.5,0.4-2.3c0-0.8-0.2-1.5-0.5-2.2s-0.7-1.3-1.2-1.8c-0.5-0.5-1.1-0.9-1.8-1.2
		c-0.7-0.3-1.4-0.5-2.2-0.5c-0.8,0-1.5,0.1-2.2,0.4s-1.3,0.7-1.8,1.2c-0.5,0.5-0.9,1.1-1.3,1.8C326,320.6,325.8,321.3,325.8,322.1z"
		/>
	<path class="st2" d="M348.4,311.1h6.2v2.1c0,0,0.1,0,0.2-0.2s0.3-0.3,0.5-0.5c0.2-0.2,0.5-0.4,0.8-0.7s0.7-0.5,1.1-0.7
		c0.6-0.3,1.1-0.5,1.5-0.6c0.4-0.1,0.8-0.3,1.1-0.3c0.3-0.1,0.6-0.1,0.7-0.1c0.2,0,0.3,0,0.3-0.1v6.3c0,0-0.1,0-0.4,0
		c-0.3,0-0.6,0-1.1,0.1c-0.4,0.1-0.9,0.2-1.4,0.4c-0.5,0.2-0.9,0.6-1.4,1c-0.4,0.4-0.7,0.9-1,1.3s-0.4,0.9-0.6,1.4
		c-0.1,0.5-0.2,1-0.3,1.5c-0.1,0.5-0.1,1.1-0.1,1.7v9.1h-6.4V311.1z"/>
	<path class="st2" d="M385.2,330.4c0,0-0.1,0.1-0.3,0.2c-0.2,0.2-0.5,0.4-0.8,0.7s-0.8,0.5-1.3,0.9c-0.5,0.3-1.1,0.6-1.7,0.9
		c-0.6,0.3-1.3,0.5-2.1,0.7c-0.7,0.2-1.5,0.3-2.3,0.2c-1.6,0-3.1-0.3-4.5-0.9s-2.6-1.4-3.6-2.5c-1-1-1.9-2.3-2.5-3.7
		c-0.6-1.4-0.9-2.9-0.9-4.6c0-1.6,0.3-3.2,0.9-4.6s1.5-2.7,2.6-3.8c1.1-1.1,2.4-1.9,3.8-2.5c1.5-0.6,3-0.9,4.6-0.8
		c1.8,0.1,3.5,0.5,4.9,1.2s2.7,1.7,3.7,3c1,1.2,1.8,2.7,2.3,4.3c0.5,1.6,0.7,3.4,0.6,5.3h-17.1c0.4,1.2,1.1,2.1,2,2.7
		c0.9,0.7,2,1,3.2,1c0.9,0,1.7-0.1,2.5-0.5c0.7-0.3,1.3-0.8,1.8-1.3L385.2,330.4z M381.6,319.4c0,0-0.1-0.1-0.3-0.4s-0.4-0.6-0.8-1
		c-0.4-0.4-0.9-0.7-1.5-1c-0.6-0.3-1.4-0.4-2.3-0.4c-0.8,0-1.5,0.2-2.1,0.5c-0.6,0.3-1.1,0.6-1.5,1c-0.5,0.4-0.9,0.9-1.2,1.4H381.6z
		"/>
</g>
</svg>
