<svg height="512pt" viewBox="-70 0 512 512" width="512pt" xmlns="http://www.w3.org/2000/svg"><path d="m186.085938 141.554688c3.914062-9.429688-5.566407-18.921876-15.039063-15.078126-55.992187 22.71875-70.980469 94.972657-29.558594 138.246094 43.101563 45.03125 117.84375 30.105469 140.957031-26.867187 3.835938-9.457031-5.65625-18.941407-15.082031-15.023438-51.097656 21.214844-102.527343-30.117187-81.277343-81.277343zm79 97.964843c-22.78125 41.648438-79.71875 49.355469-112.761719 14.832031-31.765625-33.1875-23.71875-88.238281 17.074219-110.519531-17.085938 58.371094 37.378906 112.746094 95.6875 95.6875zm0 0"/><path d="m284.179688 129.722656-17.148438-2.492187-7.667969-15.539063c-3.972656-8.042968-15.441406-8.035156-19.402343 0l-7.667969 15.539063-17.148438 2.492187c-8.871093 1.285156-12.414062 12.195313-5.996093 18.453125l12.410156 12.09375-2.933594 17.078125c-1.511719 8.832032 7.765625 15.574219 15.699219 11.402344l15.335937-8.0625 15.335938 8.0625c7.933594 4.171875 17.214844-2.570312 15.699218-11.402344l-2.929687-17.078125 12.40625-12.09375c6.421875-6.257812 2.875-17.164062-5.992187-18.453125zm-18.460938 21.34375c-2.546875 2.484375-3.707031 6.0625-3.105469 9.570313l1.867188 10.894531-9.78125-5.144531c-3.152344-1.65625-6.917969-1.65625-10.070313 0l-9.785156 5.144531 1.871094-10.894531c.601562-3.507813-.5625-7.085938-3.113282-9.574219l-7.914062-7.714844 10.9375-1.589844c3.523438-.515624 6.570312-2.726562 8.148438-5.917968l4.890624-9.914063 4.894532 9.917969c1.578125 3.1875 4.621094 5.398438 8.144531 5.914062l10.9375 1.589844zm0 0"/><path d="m243.613281 335.488281c0-4.140625-3.355469-7.5-7.5-7.5h-63.144531c-4.144531 0-7.5 3.359375-7.5 7.5 0 4.144531 3.355469 7.5 7.5 7.5h63.144531c4.144531 0 7.5-3.355469 7.5-7.5zm0 0"/><path d="m188.753906 356.183594c-4.140625 0-7.5 3.355468-7.5 7.5 0 4.140625 3.359375 7.5 7.5 7.5h31.574219c4.140625 0 7.5-3.359375 7.5-7.5 0-4.144532-3.359375-7.5-7.5-7.5zm0 0"/><path d="m187.042969 32.148438h-95.359375c-10.902344 0-19.773438 8.871093-19.773438 19.773437v347.21875c0 10.902344 8.871094 19.769531 19.773438 19.769531h228.046875c10.902343 0 19.769531-8.867187 19.769531-19.769531v-347.21875c0-10.902344-8.867188-19.773437-19.769531-19.773437h-97.6875c-4.144531 0-7.5 3.359374-7.5 7.5 0 4.140624 3.355469 7.5 7.5 7.5h97.6875c2.585937 0 4.769531 2.183593 4.769531 4.773437v347.21875c0 2.585937-2.183594 4.769531-4.769531 4.769531h-228.050781c-2.585938 0-4.769532-2.183594-4.769532-4.769531v-347.21875c0-2.589844 2.1875-4.773437 4.769532-4.773437h95.359374c4.144532 0 7.5-3.359376 7.5-7.5 0-4.140626-3.355468-7.5-7.496093-7.5zm0 0"/><path d="m364.484375 246c4.144531 0 7.5-3.359375 7.5-7.5v-214.628906c0-13.164063-10.707031-23.871094-23.871094-23.871094-3.964843 0-305.910156 0-310.21875 0-20.894531 0-37.894531 17-37.894531 37.894531v436.210938c0 20.894531 17 37.894531 37.894531 37.894531h315.246094c10.390625 0 18.84375-8.453125 18.84375-18.84375v-219.65625c0-4.140625-3.355469-7.5-7.5-7.5-4.140625 0-7.5 3.359375-7.5 7.5v162.710938h-303.820313v-421.210938h294.949219c4.894531 0 8.871094 3.980469 8.871094 8.871094v214.628906c0 4.144531 3.359375 7.5 7.5 7.5zm-349.484375 228.105469c0-12.625 10.269531-22.898438 22.894531-22.898438h279.6875c-4.84375 6.367188-7.726562 14.300781-7.726562 22.898438 0 8.59375 2.882812 16.527343 7.726562 22.894531h-279.6875c-12.625 0-22.894531-10.269531-22.894531-22.894531zm341.984375 19.050781c0 2.121094-1.722656 3.84375-3.84375 3.84375h-5.394531c-12.621094-.003906-22.890625-10.273438-22.890625-22.894531 0-12.621094 10.269531-22.894531 22.886719-22.898438h9.242187zm-318.820313-56.949219c-8.804687 0-16.753906 2.824219-23.164062 7.71875v-406.03125c0-12.625 10.269531-22.894531 22.894531-22.894531h.269531zm0 0"/></svg>