<svg id="sign" xmlns="http://www.w3.org/2000/svg" width="24.947" height="24.947" viewBox="0 0 24.947 24.947">
  <path id="Path_9" data-name="Path 9" d="M18.474,6A12.474,12.474,0,1,0,30.947,18.474,12.478,12.478,0,0,0,18.474,6Zm4.5,7.908a2.407,2.407,0,1,1-2.407,2.407A2.4,2.4,0,0,1,22.977,13.908Zm-7.484-1.971a2.944,2.944,0,1,1-2.944,2.944A2.949,2.949,0,0,1,15.492,11.937Zm0,11.388V28a9.987,9.987,0,0,1-6.411-6.187c1.31-1.4,4.578-2.108,6.411-2.108a12.688,12.688,0,0,1,2.37.274C15.817,21.068,15.492,22.5,15.492,23.326Zm2.981,5.127a8.545,8.545,0,0,1-.985-.05V23.326c0-1.771,3.667-2.657,5.488-2.657a8.843,8.843,0,0,1,4.79,1.434,10,10,0,0,1-9.293,6.349Z" transform="translate(-6 -6)" fill="#d1d1d1" fill-rule="evenodd"/>
</svg>
